<svg width="660" height="87" viewBox="0 0 660 87" fill="none" xmlns="http://www.w3.org/2000/svg">
<g clip-path="url(#clip0_21_4)">
<path d="M41.3732 -0.000553258C44.304 -0.087123 47.2024 0.172586 50.1007 0.232103C51.8777 0.269977 53.6546 0.367368 55.4315 0.480991C59.0699 0.659638 62.6751 1.26065 66.1744 2.2719C69.4115 3.21176 72.4731 4.67387 75.2378 6.60039C77.872 8.47794 80.1043 10.8619 81.8038 13.6125C83.671 16.7042 84.9853 20.0967 85.6881 23.6384C86.34 26.7413 86.7799 29.8849 87.0046 33.0474C87.1563 34.9249 87.2321 36.8349 87.2863 38.6907C87.3405 40.5465 87.335 42.4781 87.2863 44.3556C87.2321 47.1637 87.1183 49.9718 87.0046 52.7799C86.9287 54.533 86.8583 56.286 86.647 58.0282C86.3701 60.3572 85.9228 62.6629 85.3089 64.9267C84.8836 66.5483 84.3534 68.1405 83.7216 69.6935C82.6152 72.3058 81.0728 74.7117 79.1601 76.8084C77.7148 78.407 76.0771 79.8208 74.2843 81.0179C72.0659 82.4502 69.6593 83.5682 67.1333 84.34C64.7496 85.0942 62.3041 85.6373 59.8251 85.9632C57.1164 86.3419 54.3372 86.5042 51.5797 86.6557C48.8222 86.8072 45.951 86.7802 43.1339 86.7423C41.1077 86.7098 39.0762 86.6774 37.0446 86.607C34.6718 86.5205 32.2989 86.4122 29.9261 86.1742C26.9511 85.9059 24.002 85.403 21.1064 84.67C17.8947 83.8175 14.8804 82.3472 12.2326 80.3415C9.64914 78.414 7.43109 76.0411 5.68286 73.3348C3.86106 70.5389 2.6041 67.4143 1.98273 64.1368C1.58725 62.0699 1.24053 60.0031 0.964243 57.92C0.736709 56.1994 0.556126 54.477 0.422495 52.7529C0.108282 49.2865 -0.0325725 45.8309 -6.76787e-05 42.3861C0.0360488 39.5582 0.182321 36.7303 0.438748 33.9023C0.617524 31.9383 0.828806 29.9796 1.12677 28.0318C1.46785 25.3274 1.99642 22.65 2.70867 20.0187C3.85093 16.1335 5.89232 12.5711 8.66789 9.61951C11.3164 6.84584 14.5569 4.70424 18.1485 3.35402C21.2576 2.17799 24.4941 1.3699 27.7916 0.946303C30.2782 0.594613 32.7757 0.405242 35.2785 0.21046C37.3209 0.0697846 39.3525 -0.0384275 41.3732 -0.000553258Z" fill="#1918FF"/>
<path d="M68.5311 43.9015V54.1059C68.5311 54.931 68.2029 55.7223 67.6187 56.3057C67.0345 56.8892 66.2422 57.217 65.416 57.217C64.5899 57.217 63.7976 56.8892 63.2134 56.3057C62.6292 55.7223 62.301 54.931 62.301 54.1059V43.9015C62.301 39.4594 58.8121 35.8397 54.5215 35.8397C50.2309 35.8397 46.7854 39.4485 46.7691 43.8798C46.4874 51.3465 40.0894 57.3522 32.2503 57.3522H22.0329C21.2082 57.3522 20.4172 57.025 19.8341 56.4426C19.2509 55.8602 18.9233 55.0702 18.9233 54.2465C18.9233 53.4229 19.2509 52.6329 19.8341 52.0505C20.4172 51.4681 21.2082 51.1409 22.0329 51.1409H32.2503C36.7034 51.1409 40.3331 47.6672 40.3331 43.3766C40.3331 39.086 36.7034 35.6178 32.2503 35.6178H22.0329C21.614 35.6353 21.1959 35.568 20.8037 35.4199C20.4115 35.2719 20.0533 35.0461 19.7507 34.7562C19.4481 34.4664 19.2073 34.1184 19.0428 33.7332C18.8783 33.348 18.7935 32.9336 18.7935 32.5148C18.7935 32.0961 18.8783 31.6817 19.0428 31.2965C19.2073 30.9113 19.4481 30.5633 19.7507 30.2734C20.0533 29.9836 20.4115 29.7578 20.8037 29.6098C21.1959 29.4617 21.614 29.3944 22.0329 29.4119H32.2503C34.4368 29.4003 36.5983 29.8767 38.5769 30.8063C40.5555 31.7358 42.3012 33.095 43.6866 34.7846C44.9637 33.1242 46.6037 31.777 48.4814 30.8459C50.3592 29.9148 52.4251 29.4243 54.5215 29.4119C62.2577 29.401 68.5311 35.91 68.5311 43.9015Z" fill="white"/>
<path d="M147.198 33.167C148.507 30.6626 150.484 28.5691 152.911 27.1184C155.338 25.6677 158.12 24.9166 160.948 24.9483C163.349 24.8938 165.727 25.4308 167.872 26.5119C169.714 27.4379 171.329 28.7589 172.601 30.3805V28.9954C172.601 28.067 172.97 27.1765 173.628 26.52C174.285 25.8635 175.177 25.4947 176.106 25.4947C177.036 25.4947 177.927 25.8635 178.585 26.52C179.242 27.1765 179.611 28.067 179.611 28.9954V55.5561C179.611 56.4845 179.242 57.3749 178.585 58.0314C177.927 58.6879 177.036 59.0567 176.106 59.0567C175.177 59.0567 174.285 58.6879 173.628 58.0314C172.97 57.3749 172.601 56.4845 172.601 55.5561V54.0627C171.317 55.7308 169.667 57.0837 167.779 58.0179C165.443 59.1605 162.857 59.7006 160.257 59.5891C157.658 59.4776 155.128 58.7179 152.898 57.3794C150.468 55.8647 148.498 53.7173 147.198 51.1681C145.762 48.3716 145.038 45.2643 145.091 42.1215C145.031 39.0074 145.756 35.9282 147.198 33.167ZM171.192 36.2131C170.323 34.5966 169.026 33.2492 167.444 32.3175C165.927 31.4321 164.2 30.9688 162.443 30.9757C160.69 30.9664 158.966 31.418 157.443 32.285C155.861 33.1935 154.562 34.5211 153.689 36.1212C152.687 37.9602 152.185 40.0287 152.231 42.1215C152.185 44.2404 152.677 46.3366 153.662 48.2139C154.529 49.8698 155.843 51.2508 157.454 52.2015C158.955 53.0938 160.669 53.5649 162.416 53.565C164.167 53.5723 165.887 53.1128 167.4 52.2339C169.005 51.302 170.318 49.9417 171.192 48.3058C172.181 46.4414 172.675 44.3552 172.628 42.246C172.679 40.145 172.184 38.0667 171.192 36.2131Z" fill="#1918FF"/>
<path d="M239.523 44.8648H217.057C217.161 47.3264 218.236 49.6469 220.047 51.3196C221.847 52.9495 224.206 53.8235 226.635 53.7598C229.763 53.7598 232.123 52.665 233.715 50.4756C234.023 50.0431 234.429 49.6899 234.9 49.4453C235.371 49.2006 235.893 49.0716 236.424 49.0688C237.059 49.0671 237.68 49.2482 238.215 49.5904C238.749 49.9325 239.173 50.4213 239.436 50.9981C239.699 51.5749 239.79 52.2152 239.697 52.8422C239.605 53.4693 239.334 54.0565 238.916 54.5335C238.206 55.3157 237.418 56.0244 236.565 56.6491C233.9 58.6185 230.597 59.6032 226.657 59.6032C223.639 59.6511 220.663 58.9046 218.026 57.439C215.506 56.0084 213.44 53.8968 212.067 51.3467C210.577 48.5462 209.831 45.4111 209.9 42.2406C209.831 39.0779 210.554 35.9479 212.002 33.1346C213.328 30.5801 215.371 28.4668 217.88 27.053C220.565 25.5998 223.582 24.8671 226.635 24.9267C229.596 24.8789 232.519 25.5985 235.119 27.0152C237.564 28.3642 239.573 30.382 240.91 32.8316C242.329 35.4798 243.043 38.4476 242.985 41.4507V41.4885C242.971 42.3936 242.599 43.2564 241.95 43.8888C241.302 44.5212 240.429 44.872 239.523 44.8648ZM235.032 39.2594C235.121 39.2595 235.21 39.2414 235.292 39.2062C235.374 39.1709 235.448 39.1193 235.509 39.0544C235.571 38.9896 235.618 38.9128 235.649 38.829C235.679 38.7451 235.693 38.6559 235.687 38.5668C235.627 37.5216 235.356 36.4992 234.891 35.5611C234.425 34.623 233.775 33.7885 232.979 33.1075C231.123 31.5419 228.754 30.717 226.326 30.7918C224.057 30.7459 221.856 31.562 220.166 33.075C218.605 34.4957 217.572 36.403 217.236 38.4856C217.221 38.5782 217.226 38.6729 217.251 38.7632C217.277 38.8534 217.321 38.9372 217.382 39.0086C217.443 39.0801 217.518 39.1376 217.603 39.1771C217.688 39.2167 217.781 39.2373 217.875 39.2377L235.032 39.2594Z" fill="#1918FF"/>
<path d="M400.568 31.1597V49.7397C400.568 50.995 400.863 51.8967 401.451 52.445C402.042 52.9861 403.077 53.2674 404.474 53.2674H405.845C406.613 53.2688 407.35 53.5743 407.893 54.1168C408.436 54.6594 408.742 55.3948 408.743 56.1621C408.742 56.9294 408.436 57.6648 407.893 58.2074C407.35 58.7499 406.613 59.0553 405.845 59.0568H403.25C400.126 59.0568 397.728 58.3263 396.056 56.8655C394.383 55.4046 393.549 53.0294 393.553 49.7397V31.1597H392.426C391.674 31.1582 390.953 30.8589 390.422 30.3274C389.891 29.7958 389.593 29.0755 389.593 28.3245C389.593 27.574 389.891 26.8543 390.422 26.3236C390.954 25.7929 391.674 25.4948 392.426 25.4948H393.553V20.6523C393.553 19.7224 393.923 18.8306 394.581 18.1731C395.239 17.5156 396.132 17.1462 397.063 17.1462C397.993 17.1476 398.885 17.5177 399.542 18.175C400.199 18.8324 400.568 19.7234 400.568 20.6523V25.4948H405.905C406.656 25.4948 407.378 25.7927 407.91 26.3233C408.442 26.8538 408.742 27.5735 408.743 28.3245C408.742 29.076 408.442 29.7963 407.91 30.3277C407.378 30.8591 406.657 31.1583 405.905 31.1597H400.568Z" fill="#3C3C3B"/>
<path d="M458.985 29.6447L450.913 55.6156C450.605 56.6094 449.987 57.4787 449.148 58.096C448.31 58.7133 447.295 59.0462 446.254 59.0459C445.184 59.0453 444.144 58.6933 443.294 58.0441C442.444 57.3948 441.832 56.4845 441.551 55.4533L436.053 35.3475C436.037 35.2811 435.999 35.2219 435.946 35.1795C435.892 35.1372 435.826 35.1141 435.757 35.1141C435.689 35.1141 435.623 35.1372 435.569 35.1795C435.516 35.2219 435.478 35.2811 435.462 35.3475L429.969 55.4641C429.688 56.4962 429.075 57.4072 428.224 58.0565C427.373 58.7058 426.332 59.0574 425.261 59.0568C424.22 59.0574 423.206 58.7252 422.368 58.109C421.53 57.4927 420.911 56.6247 420.602 55.6319L412.476 29.6609C412.323 29.1822 412.286 28.6744 412.367 28.1786C412.448 27.6828 412.644 27.213 412.941 26.8073C413.238 26.4015 413.626 26.0713 414.074 25.8432C414.522 25.6152 415.017 25.4958 415.52 25.4948C416.303 25.4911 417.065 25.7489 417.685 26.2274C418.304 26.7058 418.746 27.3773 418.939 28.1351L424.936 51.206C424.955 51.2805 424.998 51.3465 425.059 51.3936C425.12 51.4408 425.195 51.4664 425.272 51.4664C425.349 51.4664 425.424 51.4408 425.485 51.3936C425.545 51.3465 425.589 51.2805 425.608 51.206L431.486 28.99C431.749 27.9911 432.336 27.1074 433.156 26.477C433.975 25.8466 434.98 25.505 436.015 25.5056C437.057 25.5067 438.069 25.8539 438.892 26.4925C439.715 27.1312 440.302 28.025 440.56 29.0333L446.145 51.0004C446.167 51.0765 446.213 51.1435 446.276 51.1912C446.339 51.2389 446.416 51.2648 446.495 51.2648C446.574 51.2648 446.651 51.2389 446.714 51.1912C446.777 51.1435 446.823 51.0765 446.844 51.0004L452.804 27.8971C452.982 27.2107 453.384 26.603 453.946 26.1692C454.508 25.7354 455.198 25.5001 455.908 25.5002C456.411 25.4972 456.908 25.6127 457.358 25.8374C457.808 26.062 458.199 26.3895 458.499 26.7932C458.798 27.1969 458.999 27.6654 459.083 28.1609C459.167 28.6563 459.134 29.1647 458.985 29.6447Z" fill="#3C3C3B"/>
<path d="M471.434 57.4444C468.892 56.0171 466.801 53.9065 465.399 51.3521C463.89 48.5576 463.13 45.4206 463.194 42.246C463.132 39.0743 463.909 35.9422 465.448 33.167C466.884 30.587 469.024 28.4669 471.619 27.053C474.313 25.6558 477.305 24.9264 480.341 24.9264C483.377 24.9264 486.368 25.6558 489.063 27.053C491.654 28.4685 493.789 30.5884 495.223 33.167C496.761 35.9422 497.539 39.0743 497.476 42.246C497.535 45.4239 496.734 48.5587 495.158 51.3196C493.663 53.9079 491.475 56.0288 488.841 57.4444C486.135 58.8972 483.104 59.6417 480.032 59.6087C477.026 59.6483 474.062 58.9022 471.434 57.4444ZM485.065 52.2935C486.665 51.3967 487.98 50.067 488.857 48.4574C489.881 46.5508 490.386 44.4087 490.32 42.246C490.389 40.0987 489.906 37.9696 488.917 36.0617C488.066 34.4698 486.777 33.1553 485.2 32.2743C483.672 31.4243 481.949 30.9827 480.2 30.992C478.459 30.9792 476.744 31.4212 475.227 32.2743C473.672 33.1551 472.41 34.4719 471.597 36.0617C470.651 37.9827 470.191 40.1063 470.259 42.246C470.259 45.8531 471.183 48.645 473.033 50.6216C473.921 51.584 475.007 52.3447 476.215 52.8525C477.424 53.3603 478.727 53.6032 480.037 53.565C481.794 53.5767 483.525 53.139 485.065 52.2935Z" fill="#3C3C3B"/>
<path d="M541.081 42.3055L551.266 53.3161C551.718 53.8043 552.017 54.4135 552.128 55.0691C552.239 55.7247 552.155 56.3983 551.889 57.0074C551.622 57.6166 551.183 58.1348 550.626 58.4988C550.069 58.8628 549.418 59.0567 548.752 59.0568C548.259 59.0569 547.772 58.9507 547.324 58.7452C546.876 58.5397 546.478 58.24 546.157 57.8664L534.737 44.6213V55.5832C534.738 56.0391 534.649 56.4907 534.474 56.9121C534.3 57.3335 534.045 57.7164 533.722 58.0391C533.4 58.3617 533.016 58.6176 532.595 58.7923C532.173 58.9669 531.721 59.0568 531.265 59.0568C530.808 59.0575 530.355 58.9681 529.933 58.7938C529.511 58.6195 529.127 58.3637 528.804 58.041C528.481 57.7183 528.224 57.3351 528.05 56.9133C527.875 56.4916 527.786 56.0395 527.787 55.5832V17.4546C527.786 16.9983 527.875 16.5462 528.05 16.1245C528.224 15.7027 528.481 15.3195 528.804 14.9968C529.127 14.6741 529.511 14.4183 529.933 14.244C530.355 14.0697 530.808 13.9803 531.265 13.981C531.721 13.981 532.173 14.0709 532.595 14.2455C533.016 14.4202 533.4 14.6761 533.722 14.9987C534.045 15.3214 534.3 15.7043 534.474 16.1257C534.649 16.5471 534.738 16.9987 534.737 17.4546V40.1792L545.886 26.7663C546.216 26.3688 546.631 26.0491 547.099 25.8302C547.567 25.6113 548.078 25.4986 548.595 25.5002C549.277 25.5006 549.944 25.6996 550.514 26.0728C551.085 26.4461 551.534 26.9774 551.806 27.6016C552.079 28.2258 552.163 28.9159 552.049 29.5873C551.935 30.2587 551.627 30.8822 551.163 31.3815L541.081 42.3055Z" fill="#3C3C3B"/>
<path d="M277.814 44.8648H255.196C255.296 47.3263 256.369 49.6477 258.181 51.3196C259.981 52.949 262.34 53.823 264.769 53.7598C267.9 53.7598 270.26 52.665 271.849 50.4756C272.157 50.0434 272.563 49.6904 273.034 49.4459C273.505 49.2013 274.027 49.072 274.558 49.0688C275.192 49.0671 275.814 49.2482 276.348 49.5904C276.882 49.9325 277.306 50.4213 277.569 50.9981C277.832 51.5749 277.923 52.2152 277.831 52.8422C277.739 53.4693 277.468 54.0565 277.05 54.5335C276.328 55.3158 275.529 56.0245 274.666 56.6491C272.008 58.6185 268.705 59.6032 264.758 59.6032C261.741 59.6511 258.764 58.9046 256.128 57.439C253.607 56.0084 251.542 53.8968 250.168 51.3467C248.679 48.5462 247.932 45.4111 248.001 42.2406C247.934 39.0774 248.659 35.9475 250.109 33.1346C251.44 30.5747 253.493 28.4604 256.014 27.053C258.699 25.5998 261.715 24.8671 264.769 24.9267C267.726 24.8733 270.647 25.5853 273.247 26.9935C275.692 28.3426 277.701 30.3603 279.038 32.8099C280.457 35.4581 281.172 38.426 281.113 41.429V41.6617C281.095 42.5213 280.738 43.3392 280.121 43.9386C279.503 44.538 278.675 44.8706 277.814 44.8648ZM273.166 39.2594C273.255 39.2595 273.343 39.2414 273.426 39.2062C273.508 39.1709 273.582 39.1193 273.643 39.0544C273.704 38.9896 273.752 38.9128 273.783 38.829C273.813 38.7451 273.826 38.6559 273.821 38.5668C273.761 37.5216 273.49 36.4992 273.025 35.5611C272.559 34.623 271.909 33.7885 271.112 33.1075C269.259 31.5427 266.891 30.7179 264.465 30.7918C262.196 30.7438 259.994 31.5601 258.305 33.075C256.74 34.4936 255.705 36.4016 255.369 38.4856C255.354 38.5782 255.36 38.6729 255.385 38.7632C255.41 38.8534 255.455 38.9372 255.516 39.0086C255.576 39.0801 255.652 39.1376 255.737 39.1771C255.822 39.2167 255.915 39.2373 256.008 39.2377L273.166 39.2594Z" fill="#1918FF"/>
<path d="M382.328 44.5889H359.72C359.77 45.8083 360.059 47.0061 360.572 48.1136C361.085 49.2212 361.812 50.2169 362.711 51.0437C364.507 52.6753 366.866 53.5496 369.293 53.4839C372.424 53.4839 374.786 52.3892 376.379 50.1997C376.686 49.7666 377.091 49.4129 377.563 49.1682C378.034 48.9235 378.557 48.7948 379.088 48.7929C379.722 48.7912 380.344 48.9723 380.878 49.3145C381.412 49.6567 381.836 50.1455 382.099 50.7222C382.362 51.299 382.453 51.9393 382.361 52.5664C382.269 53.1934 381.998 53.7807 381.58 54.2576C380.865 55.0391 380.076 55.7494 379.223 56.3786C376.558 58.3481 373.253 59.3328 369.309 59.3328C366.292 59.3806 363.316 58.6342 360.679 57.1686C358.158 55.7394 356.092 53.6274 354.72 51.0762C353.233 48.2748 352.487 45.1403 352.553 41.9702C352.486 38.807 353.21 35.677 354.66 32.8641C355.999 30.3118 358.056 28.2056 360.576 26.8042C363.258 25.3467 366.273 24.612 369.326 24.6724C372.283 24.6183 375.204 25.3304 377.804 26.7393C380.235 28.0967 382.23 30.1156 383.557 32.5611C384.976 35.2094 385.688 38.1775 385.627 41.1802V41.375C385.623 41.8027 385.534 42.2253 385.365 42.6187C385.197 43.012 384.953 43.3682 384.646 43.6669C384.339 43.9655 383.977 44.2007 383.579 44.3589C383.181 44.5172 382.756 44.5953 382.328 44.5889ZM377.679 38.9835C377.769 38.9836 377.858 38.9655 377.94 38.9303C378.022 38.8952 378.097 38.8436 378.159 38.7788C378.22 38.7141 378.268 38.6374 378.3 38.5535C378.331 38.4697 378.345 38.3803 378.34 38.2909C378.28 37.2456 378.01 36.2232 377.544 35.285C377.079 34.3469 376.428 33.5124 375.632 32.8316C373.778 31.267 371.41 30.4438 368.984 30.5213C366.715 30.4711 364.512 31.2878 362.825 32.8046C361.26 34.2239 360.225 36.1316 359.888 38.2152C359.874 38.3073 359.88 38.4014 359.906 38.491C359.932 38.5807 359.976 38.6637 360.037 38.7345C360.098 38.8054 360.173 38.8623 360.258 38.9016C360.342 38.9408 360.434 38.9614 360.528 38.9619L377.679 38.9835Z" fill="#3C3C3B"/>
<path d="M205.772 28.8385C205.772 29.6688 205.463 30.4695 204.906 31.0854C204.348 31.7012 203.582 32.0882 202.754 32.1714C200.587 32.3446 199.038 33.0209 197.841 34.2058C196.432 35.5963 195.739 37.9932 195.739 41.3857V55.5939C195.736 56.5128 195.368 57.393 194.716 58.0412C194.064 58.6895 193.181 59.0527 192.261 59.0513C191.342 59.0485 190.461 58.6838 189.81 58.0365C189.159 57.3892 188.79 56.5115 188.783 55.5939V28.9521C188.783 28.0308 189.149 27.1473 189.801 26.4959C190.454 25.8445 191.338 25.4785 192.261 25.4785C193.183 25.4785 194.068 25.8445 194.72 26.4959C195.372 27.1473 195.739 28.0308 195.739 28.9521V30.3534C196.713 28.6949 198.109 27.323 199.786 26.3767C200.118 26.1849 200.466 26.022 200.826 25.8897C200.913 25.8399 201.003 25.7965 201.097 25.7598C201.519 25.57 201.977 25.474 202.44 25.4785C203.328 25.4842 204.177 25.8411 204.801 26.4709C205.426 27.1007 205.775 27.9521 205.772 28.8385Z" fill="#1918FF"/>
<path d="M109.921 33.1399C111.243 30.6058 113.264 28.5028 115.745 27.08C118.351 25.6258 121.298 24.89 124.283 24.9482C128.346 24.9482 131.71 25.9131 134.375 27.8429C135.499 28.652 136.488 29.6325 137.306 30.7484C137.669 31.2529 137.885 31.8476 137.932 32.4671C137.978 33.0865 137.852 33.7067 137.568 34.2593C137.284 34.8119 136.853 35.2756 136.322 35.5993C135.791 35.9231 135.181 36.0943 134.56 36.0941H134.354C133.762 36.0822 133.184 35.9199 132.673 35.6226C132.162 35.3254 131.736 34.9029 131.434 34.3952C130.889 33.5287 130.174 32.7814 129.332 32.1985C127.832 31.2171 126.063 30.7273 124.272 30.7971C122.983 30.7441 121.699 30.9884 120.52 31.5111C119.341 32.0337 118.298 32.8206 117.473 33.8108C115.783 35.82 114.937 38.6317 114.937 42.246C114.937 45.8602 115.783 48.6828 117.473 50.7136C118.294 51.7109 119.335 52.5049 120.514 53.0334C121.694 53.5619 122.98 53.8105 124.272 53.7597C127.584 53.7597 129.973 52.564 131.439 50.1725C131.738 49.6596 132.164 49.2323 132.677 48.9318C133.189 48.6314 133.77 48.468 134.364 48.4573C135.004 48.4597 135.63 48.6429 136.169 48.9857C136.709 49.3284 137.14 49.8168 137.413 50.3941C137.686 50.9715 137.79 51.6144 137.713 52.2483C137.635 52.8822 137.38 53.4813 136.976 53.9762C136.19 54.9606 135.279 55.839 134.267 56.5895C131.583 58.6022 128.25 59.6068 124.266 59.6032C121.278 59.6589 118.329 58.9114 115.728 57.4389C113.256 55.9979 111.243 53.8876 109.921 51.352C108.469 48.5395 107.743 45.4096 107.808 42.246C107.743 39.0823 108.469 35.9524 109.921 33.1399Z" fill="#1918FF"/>
<path d="M341.193 26.5932C343.284 27.6848 344.997 29.3822 346.106 31.4627C347.343 33.8715 347.951 36.5534 347.872 39.2594V55.6157C347.872 56.5283 347.509 57.4036 346.863 58.0489C346.217 58.6942 345.341 59.0568 344.427 59.0568C343.513 59.0568 342.637 58.6942 341.99 58.0489C341.344 57.4036 340.981 56.5283 340.981 55.6157V40.2982C340.981 37.2899 340.228 34.9904 338.722 33.3835C337.216 31.7765 335.168 30.9757 332.562 30.9757C329.957 30.9757 327.898 31.7819 326.376 33.3835C324.853 34.985 324.09 37.2899 324.09 40.2982V55.6157C324.09 56.5283 323.727 57.4036 323.08 58.0489C322.434 58.6942 321.558 59.0568 320.644 59.0568H320.579C319.665 59.0568 318.789 58.6942 318.143 58.0489C317.497 57.4036 317.134 56.5283 317.134 55.6157V28.9359C317.134 28.0233 317.497 27.148 318.143 26.5027C318.789 25.8573 319.665 25.4948 320.579 25.4948H320.644C321.558 25.4948 322.434 25.8573 323.08 26.5027C323.727 27.148 324.09 28.0233 324.09 28.9359V29.3309C325.254 27.9188 326.74 26.8057 328.424 26.0846C330.204 25.3098 332.127 24.9154 334.069 24.9267C336.544 24.8873 338.992 25.4598 341.193 26.5932Z" fill="#3C3C3B"/>
<path d="M304.462 28.8493C304.464 29.68 304.155 30.4814 303.598 31.0975C303.04 31.7136 302.272 32.1003 301.445 32.1823C299.278 32.3554 297.734 33.0317 296.531 34.2167C295.123 35.6072 294.429 38.0041 294.429 41.3965V55.6048C294.426 56.5237 294.058 57.4039 293.406 58.0521C292.754 58.7003 291.871 59.0636 290.951 59.0622C290.032 59.0593 289.152 58.6947 288.501 58.0474C287.85 57.4001 287.48 56.5224 287.473 55.6048V28.963C287.473 28.0417 287.84 27.1582 288.492 26.5068C289.144 25.8553 290.029 25.4894 290.951 25.4894C291.874 25.4894 292.758 25.8553 293.41 26.5068C294.063 27.1582 294.429 28.0417 294.429 28.963V30.3643C295.407 28.7081 296.802 27.3369 298.476 26.3875C298.808 26.1958 299.156 26.0328 299.516 25.9006C299.604 25.8518 299.694 25.8084 299.787 25.7707C300.209 25.5808 300.668 25.4849 301.131 25.4894C302.018 25.4951 302.867 25.8519 303.492 26.4818C304.116 27.1116 304.465 27.963 304.462 28.8493Z" fill="#1918FF"/>
<path d="M521.383 28.8493C521.384 29.6796 521.075 30.4803 520.517 31.0962C519.96 31.712 519.193 32.0991 518.366 32.1822C516.199 32.3554 514.65 33.0317 513.447 34.2166C512.044 35.6072 511.345 38.0041 511.345 41.3965V55.6048C511.342 56.5227 510.975 57.4021 510.324 58.0502C509.673 58.6982 508.791 59.0621 507.872 59.0621C506.953 59.0621 506.07 58.6984 505.419 58.0505C504.767 57.4026 504.399 56.5232 504.394 55.6048V28.9629C504.43 28.0661 504.811 27.2178 505.459 26.5958C506.107 25.9738 506.971 25.6264 507.87 25.6264C508.768 25.6264 509.632 25.9738 510.28 26.5958C510.928 27.2178 511.309 28.0661 511.345 28.9629V30.3643C512.323 28.7081 513.718 27.3369 515.392 26.3875C515.726 26.1957 516.076 26.0328 516.437 25.9005C516.523 25.8508 516.611 25.8074 516.703 25.7707C517.125 25.5813 517.583 25.4853 518.046 25.4893C518.935 25.4936 519.785 25.8499 520.411 26.4798C521.037 27.1098 521.386 27.962 521.383 28.8493Z" fill="#3C3C3B"/>
<path d="M649.648 12.7474V13.6834H647.242V21.5504H646.094V13.6834H643.677V12.7474H649.648Z" fill="black"/>
<path d="M660 12.8122V21.5504H658.852V15.0576L655.942 21.5504H655.135L652.21 15.0197V21.5504H651.061V12.8122H652.302L655.514 20.0191L658.765 12.796L660 12.8122Z" fill="black"/>
<path d="M562.665 57.3957C562.065 56.7893 561.658 56.0196 561.495 55.1832C561.332 54.3468 561.419 53.4808 561.747 52.6939C562.074 51.907 562.627 51.2341 563.336 50.7596C564.044 50.2851 564.878 50.0301 565.731 50.0265C566.291 50.0159 566.848 50.1205 567.366 50.3336C567.884 50.5467 568.353 50.8639 568.743 51.2655C569.539 52.0878 569.984 53.1869 569.984 54.3306C569.984 55.4744 569.539 56.5735 568.743 57.3957C568.353 57.7973 567.884 58.1145 567.366 58.3277C566.848 58.5408 566.291 58.6453 565.731 58.6348C565.162 58.6493 564.596 58.5467 564.069 58.3336C563.541 58.1204 563.063 57.8012 562.665 57.3957Z" fill="#1918FF"/>
<path d="M577.043 33.1291C578.32 30.6729 580.278 28.6352 582.682 27.2586C585.206 25.852 588.059 25.1406 590.949 25.1971C594.882 25.1971 598.133 26.1314 600.701 27.9998C601.83 28.8134 602.818 29.8058 603.626 30.9378C603.962 31.4206 604.159 31.9863 604.195 32.5732C604.232 33.1601 604.106 33.7458 603.833 34.2664C603.559 34.7869 603.147 35.2226 602.643 35.5258C602.138 35.8289 601.56 35.9881 600.971 35.9859H600.701C600.153 35.9944 599.612 35.8614 599.131 35.5997C598.65 35.3381 598.244 34.9567 597.954 34.4926C597.415 33.5906 596.689 32.814 595.825 32.2147C594.379 31.2696 592.676 30.7952 590.949 30.8566C589.7 30.8068 588.457 31.0443 587.314 31.551C586.172 32.0576 585.162 32.8197 584.362 33.7784C582.729 35.719 581.913 38.4405 581.913 41.943C581.913 45.4454 582.729 48.1778 584.362 50.14C585.158 51.1052 586.167 51.8736 587.309 52.3851C588.452 52.8966 589.698 53.1375 590.949 53.0888C594.2 53.0888 596.531 51.9021 597.943 49.5286C598.211 49.0583 598.598 48.6661 599.064 48.3909C599.531 48.1156 600.061 47.967 600.603 47.9596H600.82C601.421 47.9692 602.007 48.1451 602.514 48.4676C603.021 48.7901 603.428 49.2467 603.691 49.7865C603.954 50.3264 604.061 50.9284 604.002 51.5257C603.943 52.1229 603.719 52.6921 603.355 53.17C602.575 54.1738 601.664 55.0691 600.646 55.832C598.053 57.7798 594.826 58.7537 590.965 58.7537C588.071 58.8101 585.216 58.0868 582.698 56.6598C580.296 55.2685 578.34 53.2229 577.059 50.7622C575.655 48.0378 574.955 45.0063 575.022 41.943C574.951 38.8829 575.645 35.8534 577.043 33.1291Z" fill="#1918FF"/>
<path d="M618.464 56.6599C615.999 55.2822 613.973 53.2381 612.619 50.7623C611.158 48.0559 610.424 45.0172 610.49 41.943C610.426 38.8747 611.174 35.8439 612.657 33.1562C614.046 30.6676 616.112 28.6228 618.616 27.2586C621.224 25.9042 624.12 25.1971 627.059 25.1971C629.999 25.1971 632.895 25.9042 635.502 27.2586C638.006 28.6244 640.071 30.6688 641.462 33.1562C642.945 35.8439 643.692 38.8747 643.629 41.943C643.701 45.0163 642.941 48.052 641.429 50.7298C639.989 53.2453 637.872 55.3072 635.318 56.6815C632.697 58.0882 629.761 58.8086 626.786 58.7754C623.874 58.8083 621.006 58.0789 618.464 56.6599ZM631.678 51.6767C633.234 50.8099 634.513 49.5213 635.367 47.9596C636.362 46.1139 636.852 44.0384 636.786 41.943C636.851 39.8652 636.383 37.8053 635.427 35.9589C634.603 34.4117 633.353 33.1329 631.824 32.2743C630.345 31.4518 628.679 31.025 626.986 31.0352C625.3 31.0223 623.64 31.4494 622.17 32.2743C620.663 33.1315 619.442 34.413 618.659 35.9589C617.741 37.817 617.295 39.872 617.359 41.943C617.359 45.4419 618.262 48.1472 620.068 50.0589C620.922 50.9867 621.964 51.7215 623.126 52.2142C624.287 52.7068 625.541 52.946 626.802 52.9157C628.506 52.9223 630.184 52.4959 631.678 51.6767Z" fill="#1918FF"/>
</g>
<defs>
<clipPath id="clip0_21_4">
<rect width="660" height="86.7429" fill="white"/>
</clipPath>
</defs>
</svg>
